<?xml version="1.0" encoding="UTF-8" standalone="no"?>
<!-- Created with Inkscape (http://www.inkscape.org/) -->
<svg
   width="1023.9999"
   height="1023.9999"
   viewBox="0 0 270.93333 270.93333"
   version="1.1"
   id="svg1"
   xml:space="preserve"
   xmlns="http://www.w3.org/2000/svg"
   xmlns:svg="http://www.w3.org/2000/svg"><defs
     id="defs1" /><g
     id="layer2"
     style="display:inline"><g
       id="text1"
       style="font-weight:600;font-size:70.5556px;line-height:70.5556px;font-family:'Yu Mincho';-inkscape-font-specification:'Yu Mincho, Semi-Bold';letter-spacing:0.121708px;fill:#01a402;stroke-width:0.278;stroke-linecap:square;paint-order:stroke fill markers"
       aria-label="学生&#10;連合"><path
         id="path1"
         d="m 113.63234,225.05966 c 0.0221,0.29214 0.0331,0.56499 0.0331,0.81855 v 0.26458 h -2.23656 c -0.17915,0 -0.37069,-0.0221 -0.57464,-0.0661 l 0.0951,0.31006 c 0.19844,-0.0331 0.3638,-0.0496 0.4961,-0.0496 h 2.22002 v 0.73587 h -1.80248 c -0.17638,0 -0.36242,-0.0221 -0.5581,-0.0661 l 0.091,0.31006 c 0.19843,-0.0331 0.36242,-0.0496 0.49196,-0.0496 h 1.77767 v 0.78135 h -2.76159 c -0.17915,0 -0.37345,-0.0221 -0.58291,-0.0661 l 0.0951,0.31006 c 0.20947,-0.0331 0.38448,-0.0496 0.52504,-0.0496 h 7.0776 c 0.0717,0 0.10749,-0.029 0.10749,-0.0868 0,-0.0469 -0.0813,-0.13643 -0.24392,-0.26872 -0.33072,-0.25356 -0.52364,-0.38034 -0.57877,-0.38034 -0.0634,0 -0.26596,0.18052 -0.60772,0.54157 h -2.22415 v -0.78135 h 2.61276 c 0.0744,0 0.11162,-0.029 0.11162,-0.0868 0,-0.0496 -0.0758,-0.13092 -0.22738,-0.24392 -0.29766,-0.22048 -0.47543,-0.33073 -0.5333,-0.33073 -0.0634,0 -0.2508,0.15572 -0.56224,0.46716 h -1.40146 v -0.73587 h 3.03031 c 0.0717,0 0.10748,-0.0275 0.10748,-0.0827 0,-0.0496 -0.0841,-0.14055 -0.25218,-0.27285 -0.32798,-0.23702 -0.52091,-0.35553 -0.57877,-0.35553 -0.0606,0 -0.26321,0.17226 -0.60772,0.51676 h -1.69912 v -0.59944 c 0.21222,-0.0772 0.31833,-0.15434 0.31833,-0.23151 0,-0.10752 -0.38585,-0.19158 -1.15756,-0.25218 z m 26.78183,0.0289 c 0.0303,0.2453 0.046,0.46854 0.046,0.66973 v 0.65319 h -1.29811 c -0.006,-0.0772 -0.0253,-0.20671 -0.0584,-0.38861 -0.003,-0.0165 -0.0138,-0.0248 -0.0331,-0.0248 -0.0358,0 -0.0532,0.0138 -0.0532,0.0413 -0.008,0.36931 -0.17915,0.65457 -0.51263,0.85576 -0.19844,0.14056 -0.29766,0.28388 -0.29766,0.42995 0,0.0992 0.0298,0.18604 0.0904,0.26045 0.0744,0.0854 0.16536,0.12816 0.27285,0.12816 0.17914,0 0.32108,-0.0772 0.42581,-0.23151 0.12127,-0.17914 0.1819,-0.43684 0.1819,-0.77308 v -0.10336 h 3.45612 c -0.0331,0.25356 -0.08,0.4768 -0.14056,0.66973 -0.003,0.006 -0.004,0.0112 -0.004,0.0165 0,0.0275 0.0165,0.0413 0.0496,0.0413 0.008,0 0.0153,-0.001 0.0207,-0.004 0.2067,-0.10472 0.39273,-0.22186 0.5581,-0.3514 0.0992,-0.0744 0.19431,-0.11162 0.28525,-0.11162 h 0.0331 c 0.19843,0 0.29765,-0.051 0.29765,-0.15296 0,-0.0579 -0.073,-0.15296 -0.2191,-0.28525 -0.28663,-0.25907 -0.46164,-0.38861 -0.52504,-0.38861 -0.0606,0 -0.20257,0.12402 -0.42581,0.37207 h -1.31878 l -5.2e-4,-0.8723 c 0.15709,-0.0661 0.23564,-0.13642 0.23564,-0.21084 0,-0.0965 -0.35553,-0.17638 -1.0666,-0.23978 z m -9.96735,0.0289 c -0.0248,0 -0.0372,0.0151 -0.0372,0.0455 0,0.0138 0.003,0.0248 0.008,0.0331 0.23151,0.26458 0.38447,0.5774 0.45889,0.93844 0.0413,0.21498 0.0827,0.35691 0.12402,0.42582 0.0469,0.0772 0.13505,0.11575 0.26459,0.11575 0.12954,0 0.23702,-0.0372 0.32246,-0.11162 0.10198,-0.0882 0.15296,-0.20532 0.15296,-0.3514 v -5.1e-4 c 0,-0.21773 -0.0882,-0.40928 -0.26458,-0.57465 -0.2012,-0.18741 -0.53881,-0.35966 -1.01286,-0.51676 -0.006,-0.003 -0.0112,-0.004 -0.0165,-0.004 z m 25.46357,0 c -0.0248,0 -0.0372,0.0151 -0.0372,0.0455 0,0.0138 0.003,0.0248 0.008,0.0331 0.2315,0.26458 0.38447,0.5774 0.45888,0.93844 0.0414,0.21498 0.0827,0.35691 0.12403,0.42582 0.0469,0.0772 0.13505,0.11575 0.26458,0.11575 0.12953,0 0.23702,-0.0372 0.32246,-0.11162 0.10197,-0.0882 0.15296,-0.20532 0.15296,-0.3514 v -5.1e-4 c 0,-0.21773 -0.0882,-0.40928 -0.26458,-0.57465 -0.20119,-0.18741 -0.53881,-0.35966 -1.01286,-0.51676 -0.006,-0.003 -0.0112,-0.004 -0.0165,-0.004 z m -22.85081,0.0496 c -0.0634,0.20671 -0.16536,0.46302 -0.30592,0.76895 -0.1819,0.37482 -0.36243,0.7028 -0.54157,0.98392 h -3.73311 -5.1e-4 c -0.0137,-0.10749 -0.0441,-0.24805 -0.0909,-0.42168 -0.006,-0.0193 -0.0179,-0.0289 -0.0372,-0.0289 -0.0277,0 -0.0443,0.0124 -0.0496,0.0372 -0.0358,0.2508 -0.0896,0.43408 -0.16123,0.54983 -0.0799,0.1323 -0.2384,0.25632 -0.47542,0.37207 -0.17364,0.091 -0.26045,0.22601 -0.26045,0.40515 0,0.12402 0.0358,0.22737 0.10748,0.31005 0.0827,0.0937 0.19293,0.14056 0.33073,0.14056 0.19293,0 0.34865,-0.0758 0.46716,-0.22737 0.13504,-0.17363 0.20257,-0.42306 0.20257,-0.74828 0,-0.0634 -0.002,-0.12817 -0.008,-0.1943 h 5.38675 c -0.0689,0.2949 -0.15848,0.57602 -0.26872,0.84336 -0.003,0.006 -0.004,0.01 -0.004,0.0124 0,0.0386 0.0207,0.0579 0.062,0.0579 0.006,0 0.0112,-0.001 0.0165,-0.004 0.35002,-0.18466 0.61461,-0.3583 0.79375,-0.5209 0.0386,-0.0415 0.1061,-0.0649 0.20257,-0.0703 0.15154,-0.0111 0.24939,-0.0262 0.29352,-0.0455 0.0469,-0.022 0.0703,-0.0689 0.0703,-0.14056 0,-0.0524 -0.073,-0.15572 -0.21911,-0.31006 -0.29493,-0.29214 -0.4727,-0.43821 -0.5333,-0.43821 -0.0579,0 -0.21911,0.14056 -0.48369,0.42168 h -1.31051 c 0.4327,-0.2949 0.82268,-0.62564 1.16995,-0.99219 0.25907,0 0.38861,-0.0537 0.38861,-0.16123 0,-0.0937 -0.33625,-0.29352 -1.00873,-0.59945 z m 25.46357,0 c -0.0634,0.20671 -0.16537,0.46302 -0.30593,0.76895 -0.1819,0.37482 -0.36242,0.7028 -0.54157,0.98392 h -3.7331 -5.2e-4 c -0.0137,-0.10749 -0.0441,-0.24805 -0.0909,-0.42168 -0.006,-0.0193 -0.0179,-0.0289 -0.0372,-0.0289 -0.0277,0 -0.0443,0.0124 -0.0496,0.0372 -0.0358,0.2508 -0.0896,0.43408 -0.16123,0.54983 -0.0799,0.1323 -0.2384,0.25632 -0.47542,0.37207 -0.17363,0.091 -0.26045,0.22601 -0.26045,0.40515 0,0.12402 0.0358,0.22737 0.10749,0.31005 0.0827,0.0937 0.19293,0.14056 0.33073,0.14056 0.19292,0 0.34864,-0.0758 0.46715,-0.22737 0.13505,-0.17363 0.20257,-0.42306 0.20257,-0.74828 0,-0.0634 -0.003,-0.12817 -0.008,-0.1943 h 5.38676 c -0.0689,0.2949 -0.15848,0.57602 -0.26872,0.84336 -0.003,0.006 -0.004,0.01 -0.004,0.0124 0,0.0386 0.0207,0.0579 0.062,0.0579 0.006,0 0.0112,-0.001 0.0165,-0.004 0.35002,-0.18466 0.6146,-0.3583 0.79375,-0.5209 0.0386,-0.0415 0.10611,-0.0649 0.20257,-0.0703 0.15162,-0.0111 0.24946,-0.0262 0.29352,-0.0455 0.0469,-0.022 0.0703,-0.0689 0.0703,-0.14056 0,-0.0524 -0.073,-0.15572 -0.2191,-0.31006 -0.29494,-0.29214 -0.47271,-0.43821 -0.53331,-0.43821 -0.0579,0 -0.21911,0.14056 -0.48369,0.42168 h -1.31051 c 0.4327,-0.2949 0.82269,-0.62564 1.16995,-0.99219 0.25907,0 0.38861,-0.0537 0.38861,-0.16123 0,-0.0937 -0.33624,-0.29352 -1.00872,-0.59945 z m -22.44101,0.004 c 0.0331,0.54294 0.0496,1.59852 0.0496,3.16673 l -0.0331,4.23747 c 0,0.18741 0.10749,0.28112 0.32246,0.28112 0.30868,0 0.46303,-0.12403 0.46303,-0.37207 l -0.0165,-2.22002 c 0.17364,0.0634 0.29353,0.12953 0.35967,0.19843 0.0689,0.0717 0.11302,0.19017 0.13229,0.35554 0.008,0.12402 0.0675,0.18603 0.17777,0.18603 0.24254,0 0.44235,-0.0786 0.59944,-0.23564 0.1819,-0.19844 0.27285,-0.49472 0.27285,-0.88884 0,-0.35553 -0.0703,-0.67386 -0.21084,-0.95498 -0.1626,-0.32521 -0.45613,-0.67386 -0.88056,-1.04593 0.44648,-0.61184 0.82682,-1.2361 1.14101,-1.87275 0.0993,-0.0275 0.16264,-0.0496 0.19017,-0.0661 0.0303,-0.0165 0.0455,-0.0455 0.0455,-0.0868 0,-0.0579 -0.062,-0.14469 -0.18604,-0.26045 -0.23705,-0.23151 -0.38588,-0.34727 -0.44648,-0.34727 -0.0634,0 -0.18466,0.11024 -0.3638,0.33073 h -0.75655 c -0.25631,-0.13505 -0.54294,-0.27009 -0.85989,-0.40514 z m 11.43134,0.0579 c 0.0221,0.30593 0.0331,0.56776 0.0331,0.78549 0,0.5457 -0.022,1.06798 -0.0661,1.56683 h -2.25309 c -0.2701,0 -0.56362,-0.0221 -0.88057,-0.0661 l 0.0951,0.31006 c 0.30318,-0.0331 0.55949,-0.0496 0.76895,-0.0496 h 2.25309 c -0.0827,0.7965 -0.24115,1.46761 -0.47542,2.01331 -0.5209,1.22094 -1.42903,2.18005 -2.72438,2.87735 -0.008,0.006 -0.0124,0.0138 -0.0124,0.0248 0,0.0193 0.008,0.0372 0.0248,0.0537 0.0165,0.0192 0.0317,0.0275 0.0455,0.0248 1.18236,-0.35553 2.11116,-0.94258 2.7864,-1.76113 0.32246,-0.39412 0.57464,-0.80753 0.75654,-1.24024 0.20395,-0.48782 0.35002,-1.079 0.43822,-1.77353 0.17087,1.27882 0.57188,2.33714 1.20302,3.175 0.35829,0.4768 0.8158,0.9095 1.37253,1.29811 0.23978,0.16812 0.41479,0.25218 0.52503,0.25218 0.0524,0 0.0951,-0.0565 0.12816,-0.1695 0.0882,-0.32246 0.28525,-0.54846 0.59118,-0.67799 0.0248,-0.008 0.0372,-0.029 0.0372,-0.062 0,-0.025 -0.01,-0.0401 -0.0289,-0.0455 -0.85163,-0.27285 -1.55994,-0.67111 -2.12494,-1.19476 -0.77996,-0.71107 -1.30638,-1.64262 -1.57923,-2.79466 h 3.44785 c 0.0717,0 0.10749,-0.0289 0.10749,-0.0868 0,-0.0496 -0.0868,-0.1502 -0.26045,-0.30179 -0.35277,-0.30592 -0.55672,-0.45889 -0.61185,-0.45889 -0.0717,0 -0.27423,0.21774 -0.60771,0.6532 h -2.15801 c 0.0496,-0.46578 0.0744,-1.05283 0.0744,-1.76114 0.19569,-0.0854 0.29352,-0.16674 0.29352,-0.24391 0,-0.0772 -0.062,-0.13503 -0.18603,-0.17363 -0.13781,-0.0441 -0.47543,-0.10198 -1.01286,-0.17364 z m -18.84019,0.0827 c -0.0386,-0.008 -0.0579,0.011 -0.0579,0.0579 0,0.0112 0.003,0.0195 0.008,0.0248 0.21497,0.22599 0.36793,0.52365 0.45888,0.89297 0.0414,0.19844 0.0868,0.33486 0.13643,0.40927 0.0579,0.0827 0.14745,0.12403 0.26872,0.12403 0.12126,0 0.22462,-0.0413 0.31006,-0.12403 0.0965,-0.0937 0.14469,-0.21635 0.14469,-0.36793 0,-0.21222 -0.0868,-0.3955 -0.26045,-0.54984 -0.19844,-0.17639 -0.53468,-0.3321 -1.00872,-0.46715 z m 25.46356,0 c -0.0386,-0.008 -0.0579,0.011 -0.0579,0.0579 0,0.0112 0.003,0.0195 0.008,0.0248 0.21497,0.22599 0.36793,0.52365 0.45889,0.89297 0.0413,0.19844 0.0868,0.33486 0.13642,0.40927 0.0579,0.0827 0.14745,0.12403 0.26872,0.12403 0.12127,0 0.22462,-0.0413 0.31006,-0.12403 0.0965,-0.0937 0.14469,-0.21635 0.14469,-0.36793 0,-0.21222 -0.0868,-0.3955 -0.26045,-0.54984 -0.19843,-0.17639 -0.53467,-0.3321 -1.00872,-0.46715 z m -31.90503,0.0827 c 0.0331,0.28112 0.0496,0.68489 0.0496,1.21129 v 5.09737 h -2.05879 v -4.20026 c 0.19844,-0.0992 0.29766,-0.18879 0.29766,-0.26872 0,-0.0661 -0.0634,-0.11576 -0.19017,-0.14883 -0.14332,-0.0414 -0.47267,-0.091 -0.98806,-0.14883 0.0331,0.30042 0.0496,0.75792 0.0496,1.37253 l -0.0413,4.07624 c 0,0.19843 0.12126,0.29765 0.3638,0.29765 0.339,0 0.5085,-0.11713 0.5085,-0.3514 v -0.43408 h 5.01882 v 0.45889 c 0,0.11852 0.0248,0.20258 0.0744,0.25218 0.0524,0.0579 0.15158,0.0868 0.29766,0.0868 0.33348,0 0.50022,-0.11575 0.50022,-0.34726 l -0.0413,-4.0473 v -0.79788 c 0.18742,-0.0799 0.28112,-0.16398 0.28112,-0.25218 0,-0.0689 -0.0634,-0.1213 -0.19017,-0.1571 -0.14056,-0.0413 -0.46439,-0.091 -0.97151,-0.14883 0.0331,0.25631 0.0496,0.69316 0.0496,1.31052 v 3.44785 h -2.12907 v -5.73402 c 0.20394,-0.0992 0.30592,-0.19155 0.30592,-0.27699 0,-0.12402 -0.3955,-0.22324 -1.18649,-0.29765 z m 14.6358,0.3762 h 0.83922 c -0.14882,0.71107 -0.34037,1.42489 -0.57464,2.14147 0.20671,0.25081 0.35416,0.48783 0.44235,0.71107 0.10474,0.25356 0.1571,0.5526 0.1571,0.8971 0,0.33628 -0.0372,0.53472 -0.11162,0.59532 -0.0469,0.0386 -0.11989,0.0579 -0.21911,0.0579 -0.15985,0 -0.33762,-0.008 -0.5333,-0.0248 z m 5.31234,1.48002 c -0.0689,0 -0.23565,0.15571 -0.50023,0.46715 h -1.99264 c -0.17639,0 -0.36243,-0.022 -0.55811,-0.0662 l 0.0951,0.31006 c 0.18466,-0.0331 0.33901,-0.0496 0.46303,-0.0496 h 3.09231 c 0.0744,0 0.11162,-0.0275 0.11162,-0.0827 0,-0.0579 -0.0703,-0.14056 -0.21084,-0.24804 -0.27834,-0.22049 -0.44509,-0.33073 -0.50022,-0.33073 z m -9.45524,0.41754 c -0.0524,0 -0.21359,0.12127 -0.48369,0.3638 h -2.8112 c -0.17088,0 -0.35416,-0.0221 -0.54984,-0.0661 l 0.091,0.32659 c 0.17364,-0.0441 0.33487,-0.0661 0.48369,-0.0661 h 2.76986 c -0.24253,0.34175 -0.53054,0.66559 -0.86403,0.97151 l -5.2e-4,-5.1e-4 c -0.29489,-0.0469 -0.52089,-0.0822 -0.67799,-0.10697 0.0165,0.17914 0.0248,0.38998 0.0248,0.63252 v 0.17725 h -2.70784 c -0.18465,0 -0.38309,-0.0216 -0.59531,-0.0656 l 0.0951,0.31006 c 0.21222,-0.0331 0.38999,-0.0496 0.5333,-0.0496 h 2.67477 v 1.74459 c 0,0.0854 -0.0482,0.12816 -0.14469,0.12816 -0.26458,0 -0.66697,-0.0207 -1.20716,-0.062 -0.0248,0 -0.0372,0.0221 -0.0372,0.0661 0,0.0305 0.01,0.0484 0.0289,0.0538 0.31971,0.0799 0.54846,0.15985 0.68626,0.23978 0.16259,0.0937 0.25492,0.22048 0.27699,0.38034 0.0165,0.0909 0.0345,0.14883 0.0537,0.17363 0.0221,0.0303 0.0744,0.0455 0.1571,0.0455 0.41893,0 0.70418,-0.10473 0.85576,-0.31419 0.10198,-0.13505 0.15296,-0.31832 0.15296,-0.54984 0,-0.113 -0.002,-0.25356 -0.008,-0.42168 -0.008,-0.25631 -0.0139,-0.45199 -0.0165,-0.58704 v -0.8971 h 3.43958 c 0.0717,0 0.10749,-0.0275 0.10749,-0.0827 0,-0.0468 -0.091,-0.14607 -0.27286,-0.29765 -0.35552,-0.27561 -0.56085,-0.41341 -0.61598,-0.41341 -0.0717,0 -0.26872,0.19982 -0.59118,0.59944 h -2.06705 v -0.26045 c 0.19844,-0.0909 0.29765,-0.17363 0.29765,-0.24804 0,-0.0606 -0.0537,-0.1061 -0.16123,-0.13643 0.40239,-0.19292 0.85025,-0.46578 1.34359,-0.81855 0.27836,-0.008 0.41754,-0.0648 0.41754,-0.1695 0,-0.0551 -0.0648,-0.13919 -0.1943,-0.25218 -0.25906,-0.23152 -0.42029,-0.34727 -0.48369,-0.34727 z m 25.46356,0 c -0.0524,0 -0.21359,0.12127 -0.48369,0.3638 h -2.8112 c -0.17087,0 -0.35415,-0.0221 -0.54983,-0.0661 l 0.0909,0.32659 c 0.17363,-0.0441 0.33486,-0.0661 0.48369,-0.0661 h 2.76985 c -0.24254,0.34175 -0.53055,0.66559 -0.86403,0.97151 l -5.1e-4,-5.1e-4 c -0.2949,-0.0469 -0.5209,-0.0822 -0.678,-0.10697 0.0165,0.17914 0.0248,0.38998 0.0248,0.63252 v 0.17725 h -2.70785 c -0.18466,0 -0.3831,-0.0216 -0.59531,-0.0656 l 0.0951,0.31006 c 0.21222,-0.0331 0.38999,-0.0496 0.53331,-0.0496 h 2.67477 v 1.74459 c 0,0.0854 -0.0482,0.12816 -0.1447,0.12816 -0.26458,0 -0.66697,-0.0207 -1.20716,-0.062 -0.0248,0 -0.0372,0.0221 -0.0372,0.0661 0,0.0305 0.01,0.0484 0.0289,0.0538 0.31971,0.0799 0.54847,0.15985 0.68627,0.23978 0.16259,0.0937 0.25492,0.22048 0.27698,0.38034 0.0165,0.0909 0.0345,0.14883 0.0538,0.17363 0.0221,0.0303 0.0744,0.0455 0.15709,0.0455 0.41893,0 0.70418,-0.10473 0.85576,-0.31419 0.10198,-0.13505 0.15297,-0.31832 0.15297,-0.54984 0,-0.113 -0.002,-0.25356 -0.008,-0.42168 -0.008,-0.25631 -0.0139,-0.45199 -0.0165,-0.58704 v -0.8971 h 3.43958 c 0.0717,0 0.10749,-0.0275 0.10749,-0.0827 0,-0.0468 -0.091,-0.14607 -0.27285,-0.29765 -0.35552,-0.27561 -0.56085,-0.41341 -0.61599,-0.41341 -0.0717,0 -0.26871,0.19982 -0.59117,0.59944 h -2.06706 v -0.26045 c 0.19844,-0.0909 0.29765,-0.17363 0.29765,-0.24804 0,-0.0606 -0.0537,-0.1061 -0.16123,-0.13643 0.40239,-0.19292 0.85026,-0.46578 1.34359,-0.81855 0.27837,-0.008 0.41755,-0.0648 0.41755,-0.1695 0,-0.0551 -0.0648,-0.13919 -0.19431,-0.25218 -0.25906,-0.23152 -0.42029,-0.34727 -0.48369,-0.34727 z m -46.51551,0.80202 c 0.0275,0.53192 0.0408,1.17547 0.0408,1.93063 l -0.0331,2.14974 c 0,0.12125 0.0221,0.20532 0.0661,0.25218 0.0441,0.0524 0.13505,0.0786 0.27285,0.0786 0.339,0 0.5085,-0.10749 0.5085,-0.32246 l -0.008,-1.45521 h 3.26181 v 0.76895 c 0,0.0744 -0.0427,0.11162 -0.12815,0.11162 -0.30042,0 -0.68764,-0.0165 -1.16169,-0.0496 -0.0221,0 -0.0331,0.0151 -0.0331,0.0455 0,0.0333 0.011,0.0525 0.0331,0.0579 0.38861,0.10749 0.64216,0.19568 0.76068,0.26458 0.13507,0.0799 0.22051,0.2136 0.25631,0.40101 0.0165,0.0799 0.0331,0.1309 0.0496,0.15297 0.0193,0.0275 0.0565,0.0413 0.11162,0.0413 0.23152,0 0.42719,-0.0482 0.58705,-0.1447 0.23702,-0.14882 0.35553,-0.37483 0.35553,-0.67799 l -0.0248,-1.97197 v -0.66973 c 0.16812,-0.11025 0.25218,-0.19982 0.25218,-0.26872 0,-0.0551 -0.0675,-0.14194 -0.20257,-0.26045 -0.25906,-0.226 -0.4203,-0.339 -0.4837,-0.339 -0.0579,0 -0.21084,0.12954 -0.45888,0.38861 h -3.09645 c -0.34727,-0.20395 -0.65595,-0.36518 -0.92605,-0.48369 z m 31.13971,0.0904 c -0.0744,0 -0.226,0.15848 -0.45476,0.47543 h -3.30729 c -0.17638,0 -0.36242,-0.0221 -0.5581,-0.0661 l 0.0951,0.31006 c 0.18465,-0.0331 0.339,-0.0491 0.46302,-0.0491 h 0.51677 c -0.0276,0.82957 -0.18329,1.49327 -0.46716,1.99212 -0.32246,0.57051 -0.88883,1.0492 -1.69912,1.43506 -0.011,0.006 -0.0165,0.0165 -0.0165,0.0331 0,0.0607 0.0193,0.0868 0.0579,0.0786 0.93155,-0.20946 1.63711,-0.57051 2.11667,-1.08314 0.54844,-0.58429 0.83369,-1.40284 0.85576,-2.45566 h 0.67799 v 2.07532 l -0.0165,0.73587 c 0,0.24254 0.0717,0.4148 0.21497,0.51677 0.16261,0.11851 0.46716,0.17777 0.91364,0.17777 0.46302,0 0.81856,-0.0331 1.0666,-0.0992 0.28664,-0.0827 0.42995,-0.21636 0.42995,-0.40101 0,-0.0661 -0.0138,-0.1185 -0.0413,-0.1571 -0.022,-0.0303 -0.0758,-0.0758 -0.16123,-0.13642 -0.10197,-0.0717 -0.15296,-0.1571 -0.15296,-0.25632 0,-0.0606 0.007,-0.17501 0.0207,-0.34313 0.0248,-0.28663 0.0413,-0.48231 0.0496,-0.58704 0,-0.0275 -0.0262,-0.0413 -0.0785,-0.0413 -0.0304,0 -0.0469,0.008 -0.0496,0.0248 -0.14607,0.60082 -0.2949,0.98392 -0.44648,1.14928 -0.0909,0.0965 -0.2701,0.1447 -0.53744,0.1447 -0.17089,0 -0.28113,-0.01 -0.33073,-0.0289 -0.0551,-0.0221 -0.0827,-0.0772 -0.0827,-0.16537 v -2.60862 l 1.53376,-5.2e-4 c 0.0717,0 0.10748,-0.0275 0.10748,-0.0827 0,-0.0579 -0.0703,-0.14056 -0.21084,-0.24805 -0.28112,-0.226 -0.45063,-0.339 -0.50849,-0.339 z m -30.29221,0.58756 h 3.26181 v 0.76895 h -3.26181 z m 0,0.96325 h 3.26181 v 0.79789 h -3.26181 z m 18.03042,4.78834 c -0.1378,0.42444 -0.33486,0.85439 -0.59118,1.28985 -0.65594,1.08313 -1.55856,1.99953 -2.70784,2.74918 -0.008,0.006 -0.0124,0.0138 -0.0124,0.0248 0,0.0469 0.0193,0.0703 0.0579,0.0703 h 0.0124 c 1.84089,-0.74959 3.16258,-1.86141 3.96461,-3.33572 0.46578,0.91501 1.03491,1.67156 1.70739,2.26963 0.34451,0.30868 0.74552,0.59118 1.20303,0.8475 0.20672,0.11299 0.33901,0.16949 0.39687,0.16949 0.0661,0 0.11436,-0.0537 0.1447,-0.16123 0.12126,-0.43822 0.31557,-0.66973 0.58291,-0.69453 0.0221,0 0.0331,-0.0179 0.0331,-0.0537 0,-0.0333 -0.011,-0.0531 -0.0331,-0.0584 -0.75792,-0.13505 -1.42076,-0.3638 -1.98851,-0.68626 -0.72761,-0.41341 -1.37391,-1.01148 -1.9389,-1.7942 0.24805,-0.0689 0.37207,-0.13644 0.37207,-0.20258 0,-0.0496 -0.0413,-0.0909 -0.12402,-0.12402 -0.10474,-0.0386 -0.4644,-0.14194 -1.07901,-0.31006 z m -15.69413,0.0703 c 0.0275,0.28939 0.0413,0.59118 0.0413,0.90537 v 0.97565 h -1.33118 c -0.20671,0 -0.42582,-0.0221 -0.65733,-0.0661 l 0.0909,0.31006 c 0.23702,-0.0331 0.43546,-0.0496 0.59531,-0.0496 h 1.30225 v 2.57142 c -0.60083,0.37206 -1.21267,0.68075 -1.83555,0.92604 -0.23978,0.0992 -0.44924,0.17778 -0.62838,0.23564 0.24256,0.41892 0.39001,0.66835 0.44235,0.74828 0.0606,0.0882 0.1185,0.13229 0.17363,0.13229 0.10749,0 0.16123,-0.11576 0.16123,-0.34727 0.71107,-0.48231 1.27331,-0.98529 1.68672,-1.50895 v 1.95544 c 0,0.0854 -0.04,0.12816 -0.11989,0.12816 -0.26734,0 -0.68213,-0.0221 -1.24437,-0.0661 -0.0221,0 -0.0331,0.0184 -0.0331,0.0543 0,0.0387 0.011,0.0603 0.0331,0.0656 0.35829,0.0799 0.60496,0.16123 0.74001,0.24391 0.15437,0.0965 0.24945,0.25632 0.28525,0.47956 0.0138,0.0854 0.0703,0.12816 0.1695,0.12816 0.37483,0 0.64768,-0.0992 0.81856,-0.29766 0.10748,-0.13229 0.16123,-0.32108 0.16123,-0.56637 0,-0.26734 -0.0441,-1.87276 -0.1323,-4.81625 0.17364,1.26504 0.38448,2.19384 0.63252,2.7864 0.27837,0.64492 0.6532,1.20302 1.12448,1.67431 0.20392,0.20395 0.33621,0.30593 0.39688,0.30593 0.0386,0 0.073,-0.0303 0.10335,-0.0909 0.0909,-0.20948 0.16398,-0.34728 0.21911,-0.41341 0.0717,-0.0882 0.18741,-0.15438 0.34727,-0.19844 0.0248,-0.006 0.0372,-0.0221 0.0372,-0.0496 0,-0.0167 -0.007,-0.0277 -0.0207,-0.0331 -0.72209,-0.41342 -1.29949,-0.9164 -1.73219,-1.50896 -0.12402,-0.17363 -0.22049,-0.32521 -0.28939,-0.45475 0.42719,-0.25631 0.82544,-0.55535 1.19476,-0.8971 0.13227,0 0.22185,-0.008 0.26872,-0.0248 0.0524,-0.0166 0.0785,-0.051 0.0785,-0.10335 0,-0.10197 -0.30179,-0.31144 -0.90537,-0.62838 -0.0854,0.27835 -0.18465,0.52778 -0.29765,0.74827 -0.0854,0.17363 -0.22876,0.41616 -0.42995,0.7276 -0.28112,-0.52366 -0.48507,-1.15893 -0.61185,-1.90582 h 2.36471 c 0.0717,0 0.10749,-0.0275 0.10749,-0.0827 0,-0.0551 -0.0785,-0.14607 -0.23564,-0.27285 -0.30592,-0.24253 -0.48644,-0.3638 -0.54157,-0.3638 -0.0717,0 -0.24667,0.17501 -0.52504,0.52503 h -1.19475 v -1.36425 c 0.17363,-0.0634 0.26044,-0.13919 0.26044,-0.22738 0,-0.0689 -0.0358,-0.11436 -0.10748,-0.13643 -0.0827,-0.0248 -0.40377,-0.0758 -0.96325,-0.15296 z m 5.04775,0 c 0.0331,0.22875 0.0496,0.47404 0.0496,0.73587 v 1.03353 h -0.50023 c -0.19292,0 -0.40101,-0.0221 -0.62425,-0.0661 l 0.0909,0.33486 c 0.18742,-0.0441 0.36518,-0.0662 0.5333,-0.0662 h 1.64125 c -0.23151,0.5457 -0.54708,1.07212 -0.94671,1.57924 -0.45751,0.58153 -0.97152,1.07349 -1.54203,1.47588 -0.005,0.006 -0.008,0.0124 -0.008,0.0207 0,0.0551 0.0248,0.0827 0.0744,0.0827 0.006,0 0.01,-0.001 0.0124,-0.004 0.47129,-0.19568 0.89986,-0.43132 1.28571,-0.70693 l -5.2e-4,1.19476 -0.0413,1.86035 c 0,0.21498 0.10335,0.32246 0.31006,0.32246 0.35553,0 0.5333,-0.11851 0.5333,-0.35553 l -0.0331,-2.54662 v -0.96738 c 0.24254,0.22875 0.4396,0.53606 0.59118,0.92191 0.0496,0.12954 0.0978,0.21912 0.1447,0.26872 0.0551,0.0579 0.13504,0.0868 0.23978,0.0868 0.10473,0 0.19705,-0.0372 0.27698,-0.11162 0.0909,-0.0854 0.13643,-0.18878 0.13643,-0.31006 0,-0.45199 -0.46027,-0.79375 -1.3808,-1.02526 0.44648,-0.45475 0.80202,-0.95085 1.0666,-1.48828 0.1819,-0.0661 0.27286,-0.13643 0.27286,-0.21084 0,-0.0551 -0.0593,-0.14607 -0.17777,-0.27285 -0.22599,-0.23151 -0.37068,-0.34727 -0.43408,-0.34727 -0.0579,0 -0.18741,0.11025 -0.38861,0.33073 h -0.3638 v -1.24437 c 0.17914,-0.0854 0.26872,-0.16398 0.26872,-0.23564 0,-0.11851 -0.36243,-0.21498 -1.08728,-0.28939 z m 36.02726,0.0248 c -0.0248,0 -0.0372,0.0151 -0.0372,0.0455 0,0.0138 0.003,0.0248 0.008,0.0331 0.23152,0.26458 0.38448,0.5774 0.45889,0.93845 0.0413,0.21497 0.0827,0.35691 0.12402,0.42581 0.0469,0.0772 0.13505,0.11576 0.26459,0.11576 0.12953,0 0.23702,-0.0372 0.32246,-0.11162 0.10197,-0.0882 0.15296,-0.20533 0.15296,-0.3514 0,-0.21774 -0.0882,-0.40929 -0.26458,-0.57465 -0.2012,-0.18741 -0.53881,-0.35966 -1.01286,-0.51676 -0.006,-0.003 -0.0112,-0.004 -0.0165,-0.004 z m -49.26521,0.0165 c 0.0331,0.34452 0.0496,0.79375 0.0496,1.34772 v 1.36013 l -0.84801,0.31419 v -1.59163 c 0.16261,-0.0772 0.24391,-0.15572 0.24391,-0.23565 0,-0.0633 -0.0634,-0.11296 -0.19017,-0.14883 -0.14056,-0.0413 -0.42857,-0.0854 -0.86403,-0.13229 0.0386,0.31696 0.0579,0.83096 0.0579,1.54203 v 0.83922 l -0.49196,0.17777 c -0.22048,0.0716 -0.4203,0.12263 -0.59945,0.15296 l 0.17777,0.26045 c 0.1323,-0.0772 0.29904,-0.15296 0.50023,-0.22738 l 0.41341,-0.15296 c -0.005,0.55397 -0.008,1.58475 -0.008,3.09232 0,0.1819 0.0138,0.32383 0.0413,0.42581 0.0441,0.15986 0.13781,0.27699 0.28112,0.3514 0.24529,0.12954 0.90261,0.19431 1.97197,0.19431 0.91502,0 1.54203,-0.0565 1.88103,-0.1695 0.28663,-0.0965 0.42994,-0.25494 0.42994,-0.47543 0,-0.12957 -0.0758,-0.22465 -0.22737,-0.28525 -0.0717,-0.0331 -0.11716,-0.0629 -0.13643,-0.0904 -0.0221,-0.0331 -0.0331,-0.10474 -0.0331,-0.21498 l 0.008,-0.88056 c 0,-0.0275 -0.0234,-0.0413 -0.0703,-0.0413 -0.0277,0 -0.0443,0.008 -0.0496,0.0248 -0.16536,0.68075 -0.33486,1.09003 -0.5085,1.22783 -0.0717,0.0606 -0.20257,0.10336 -0.39274,0.12816 -0.22324,0.0275 -0.62012,0.0408 -1.19062,0.0408 -0.41893,0 -0.69729,-0.005 -0.83509,-0.016 -0.17642,-0.0165 -0.2908,-0.051 -0.34313,-0.10335 -0.0441,-0.0441 -0.0662,-0.13091 -0.0662,-0.26045 v -3.22874 l 0.84749,-0.30179 c -0.003,0.83785 -0.0138,1.6564 -0.0331,2.45566 -0.005,0.26737 -0.008,0.41896 -0.008,0.45476 0,0.19292 0.11025,0.28938 0.33073,0.28938 0.33073,0 0.4961,-0.12127 0.4961,-0.3638 l -0.008,-0.8723 c 0.14333,0.0717 0.23979,0.13917 0.28939,0.20257 0.0551,0.0689 0.0951,0.18466 0.11989,0.34727 0.006,0.0799 0.0179,0.1309 0.0372,0.15296 0.0193,0.0275 0.0634,0.0408 0.13229,0.0408 0.23151,0 0.40515,-0.0372 0.5209,-0.11162 0.15158,-0.091 0.26734,-0.26321 0.34726,-0.51677 0.11578,-0.39687 0.18744,-1.24024 0.21498,-2.53008 0.13504,-0.11576 0.20257,-0.20808 0.20257,-0.27698 0,-0.0744 -0.0648,-0.1571 -0.1943,-0.24805 -0.27562,-0.17363 -0.44237,-0.26045 -0.50023,-0.26045 -0.0606,0 -0.17364,0.14607 -0.339,0.43822 l -0.86403,0.31419 v -1.94717 c 0.16261,-0.0744 0.24391,-0.1447 0.24391,-0.21084 0,-0.0634 -0.0482,-0.11022 -0.14469,-0.14056 -0.12127,-0.0358 -0.41893,-0.0827 -0.89297,-0.14056 z m 56.48389,0.009 c 0.0275,0.2067 0.0413,0.38447 0.0413,0.5333 v 0.64492 h -1.17822 c -0.17914,0 -0.37069,-0.0221 -0.57464,-0.0661 l 0.091,0.31006 c 0.19568,-0.0331 0.35691,-0.0496 0.48369,-0.0496 h 3.77031 c 0.0717,0 0.10749,-0.0275 0.10749,-0.0827 0,-0.0496 -0.0758,-0.13505 -0.22737,-0.25631 -0.30592,-0.23702 -0.48644,-0.35554 -0.54157,-0.35554 -0.0689,0 -0.24392,0.16675 -0.52504,0.50023 h -0.62011 v -0.67799 c 0.17638,-0.0827 0.26458,-0.16124 0.26458,-0.23565 0,-0.10749 -0.3638,-0.19568 -1.09141,-0.26458 z m -15.41766,0.008 c 0.0331,0.30593 0.0496,0.70693 0.0496,1.20303 v 1.03353 h -1.42214 c 0.13781,-0.28388 0.26734,-0.59945 0.38861,-0.94672 0.226,-0.0634 0.339,-0.1378 0.339,-0.22324 0,-0.11575 -0.3638,-0.26734 -1.09141,-0.45475 -0.0441,0.3197 -0.113,0.6463 -0.2067,0.97978 -0.30042,1.07488 -0.71796,1.9389 -1.25264,2.59209 -0.003,0.006 -0.004,0.0112 -0.004,0.0165 0,0.0386 0.0234,0.0579 0.0703,0.0579 0.008,0 0.0153,-0.003 0.0207,-0.008 0.65595,-0.41892 1.20028,-1.02526 1.63298,-1.81901 h 1.52549 v 1.99678 h -1.51722 c -0.23702,0 -0.49058,-0.0221 -0.76068,-0.0661 l 0.0909,0.31006 c 0.28939,-0.0331 0.52779,-0.0496 0.7152,-0.0496 h 1.47175 v 2.36471 h -2.43086 c -0.28112,0 -0.58016,-0.0216 -0.89711,-0.0656 l 0.0951,0.31006 c 0.3197,-0.0331 0.5898,-0.0496 0.81028,-0.0496 h 6.51124 c 0.0744,0 0.11162,-0.0275 0.11162,-0.0827 0,-0.0524 -0.091,-0.15434 -0.27286,-0.30592 -0.35278,-0.2949 -0.55811,-0.44235 -0.61598,-0.44235 -0.0689,0 -0.28388,0.21221 -0.64492,0.63665 h -1.84382 v -2.36471 h 2.55489 c 0.0744,0 0.11162,-0.0281 0.11162,-0.0832 0,-0.0524 -0.0854,-0.15159 -0.25632,-0.29766 -0.32796,-0.28112 -0.51951,-0.42168 -0.57464,-0.42168 -0.0717,0 -0.26596,0.20257 -0.58291,0.60772 h -1.25264 v -1.99678 h 2.78588 c 0.0717,0 0.10749,-0.0275 0.10749,-0.0827 0,-0.0661 -0.0854,-0.16812 -0.25632,-0.30593 -0.33898,-0.28938 -0.53604,-0.43408 -0.59118,-0.43408 -0.0717,0 -0.26871,0.20946 -0.59117,0.62839 h -1.45521 v -1.69499 c 0.20946,-0.0662 0.31419,-0.14469 0.31419,-0.23565 0,-0.0578 -0.0537,-0.10469 -0.16123,-0.14056 -0.16812,-0.0606 -0.50987,-0.11576 -1.02526,-0.16536 z m 10.81174,0.0165 c -0.0634,0.2067 -0.16536,0.46302 -0.30592,0.76894 -0.1819,0.37483 -0.36242,0.7028 -0.54157,0.98392 h -3.73311 -5.1e-4 c -0.0137,-0.10749 -0.0441,-0.24805 -0.091,-0.42168 -0.006,-0.0193 -0.0179,-0.0289 -0.0372,-0.0289 -0.0277,0 -0.0443,0.0124 -0.0496,0.0372 -0.0358,0.2508 -0.0896,0.43408 -0.16123,0.54984 -0.0799,0.13229 -0.2384,0.25631 -0.47542,0.37207 -0.17364,0.0909 -0.26045,0.22599 -0.26045,0.40514 0,0.12403 0.0358,0.22738 0.10748,0.31006 0.0827,0.0937 0.19293,0.14056 0.33073,0.14056 0.19293,0 0.34865,-0.0758 0.46716,-0.22738 0.13505,-0.17363 0.20257,-0.42306 0.20257,-0.74827 0,-0.0634 -0.003,-0.12817 -0.008,-0.19431 h 5.38675 c -0.0689,0.2949 -0.15847,0.57603 -0.26871,0.84336 -0.003,0.006 -0.004,0.01 -0.004,0.0124 0,0.0386 0.0207,0.0579 0.062,0.0579 0.006,0 0.0112,-9.5e-4 0.0165,-0.004 0.35002,-0.18466 0.6146,-0.35829 0.79375,-0.5209 0.0386,-0.0415 0.1061,-0.0649 0.20257,-0.0703 0.15161,-0.0111 0.24945,-0.0267 0.29352,-0.046 0.0469,-0.0221 0.0703,-0.0689 0.0703,-0.14056 0,-0.0524 -0.073,-0.15572 -0.21911,-0.31006 -0.29493,-0.29215 -0.4727,-0.43822 -0.5333,-0.43822 -0.0579,0 -0.2191,0.14056 -0.48369,0.42168 h -1.31051 c 0.4327,-0.2949 0.82268,-0.62563 1.16995,-0.99219 0.25907,0 0.38861,-0.0537 0.38861,-0.16123 0,-0.0937 -0.33624,-0.29352 -1.00873,-0.59944 z m -18.12499,5.1e-4 c 0.0221,0.23978 0.0331,0.51625 0.0331,0.83044 v 1.2945 h -1.68258 v -1.63298 c 0.17915,-0.0882 0.26872,-0.16309 0.26872,-0.22376 0,-0.10472 -0.36518,-0.19154 -1.09554,-0.26045 0.0275,0.28112 0.0413,0.55862 0.0413,0.83148 v 1.28571 h -1.00046 c -0.20119,0 -0.41892,-0.0221 -0.65319,-0.0661 l 0.0951,0.31006 c 0.22048,-0.0331 0.40652,-0.0496 0.5581,-0.0496 h 1.00046 v 2.42259 h -1.41387 c -0.20671,0 -0.42719,-0.022 -0.66146,-0.0661 l 0.0951,0.31005 c 0.226,-0.0331 0.41479,-0.0496 0.56637,-0.0496 h 6.88743 c 0.0744,0 0.11163,-0.0281 0.11163,-0.0832 0,-0.0469 -0.0827,-0.14056 -0.24805,-0.28112 -0.32249,-0.27561 -0.51404,-0.41341 -0.57464,-0.41341 -0.0689,0 -0.26596,0.1943 -0.59118,0.58291 h -0.8971 v -2.4226 l 1.81901,5.2e-4 c 0.0744,0 0.11162,-0.0281 0.11162,-0.0832 0,-0.0468 -0.0799,-0.13729 -0.23978,-0.27233 -0.31971,-0.26458 -0.50851,-0.39688 -0.56637,-0.39688 -0.0689,0 -0.2577,0.18604 -0.56638,0.55811 h -0.5581 v -1.62523 c 0.16812,-0.0854 0.25218,-0.16485 0.25218,-0.23926 0,-0.1075 -0.3638,-0.19431 -1.09141,-0.26045 z m -17.04599,0.0119 c 0.0331,0.27836 0.0496,0.67937 0.0496,1.20303 v 1.84381 h -1.00872 c -0.19018,0 -0.39825,-0.0221 -0.62425,-0.0662 l 0.0909,0.31006 c 0.22875,-0.0331 0.41754,-0.0496 0.56637,-0.0496 h 0.97565 v 3.79099 h -1.43867 c -0.23151,0 -0.48232,-0.0216 -0.75241,-0.0656 l 0.0909,0.31006 c 0.27837,-0.0331 0.51263,-0.0496 0.7028,-0.0496 h 4.47311 c 0.0717,0 0.10749,-0.0281 0.10749,-0.0832 0,-0.0524 -0.0909,-0.1571 -0.27285,-0.31419 -0.3445,-0.30042 -0.54432,-0.45062 -0.59945,-0.45062 -0.0717,0 -0.27699,0.21773 -0.61598,0.65319 h -0.85576 v -3.79099 h 2.04225 c 0.0717,0 0.10749,-0.0276 0.10749,-0.0827 0,-0.0496 -0.0785,-0.14607 -0.23565,-0.28939 -0.31973,-0.2701 -0.50577,-0.40514 -0.5581,-0.40514 -0.0689,0 -0.2701,0.1943 -0.60358,0.58291 h -0.75241 v -2.50527 c 0.20394,-0.0854 0.30592,-0.17088 0.30592,-0.25632 0,-0.0551 -0.0524,-0.0992 -0.1571,-0.13229 -0.16535,-0.0524 -0.51125,-0.10336 -1.03766,-0.15296 z m -20.4773,0.0584 c 0.0275,0.31695 0.0413,0.71796 0.0413,1.20303 v 1.24437 h -0.59945 c -0.14056,0 -0.29352,-0.0234 -0.45888,-0.0703 l 0.0951,0.31419 c 0.15985,-0.0331 0.29214,-0.0496 0.39688,-0.0496 h 0.56637 v 2.79466 c -0.21496,0.0523 -0.34174,0.0827 -0.38034,0.091 -0.28663,0.0662 -0.52916,0.10889 -0.7276,0.12816 0.1433,0.38861 0.24666,0.64768 0.31006,0.77721 0.0771,0.16537 0.14603,0.24805 0.2067,0.24805 0.10749,0 0.1695,-0.12127 0.18604,-0.3638 0.75792,-0.33625 1.49517,-0.78135 2.21175,-1.33532 0.008,-0.006 0.0124,-0.0165 0.0124,-0.0331 0,-0.0469 -0.0151,-0.0703 -0.0455,-0.0703 -0.003,0 -0.007,9.5e-4 -0.0124,0.004 -0.34726,0.13229 -0.68626,0.24942 -1.01699,0.35139 v -2.59209 l 1.05007,5.2e-4 c 0.0744,0 0.11162,-0.029 0.11162,-0.0868 0,-0.0441 -0.0593,-0.12541 -0.17777,-0.24392 -0.23152,-0.20946 -0.37622,-0.31419 -0.43408,-0.31419 -0.0799,0 -0.20671,0.15021 -0.38034,0.45062 h -0.1695 v -1.9141 c 0.20395,-0.0937 0.30592,-0.17776 0.30592,-0.25218 0,-0.11851 -0.3638,-0.21222 -1.0914,-0.28112 z m 63.14757,0 c 0.0303,0.39963 0.0455,1.28296 0.0455,2.64997 l -0.0248,4.70462 c 0,0.1819 0.11024,0.27285 0.33073,0.27285 0.30317,0 0.45475,-0.10748 0.45475,-0.32246 l -0.016,-1.24437 v -5.46116 h 1.14928 c -0.1626,0.72209 -0.41617,1.54064 -0.76067,2.45566 0.65594,0.5457 0.98392,1.16996 0.98392,1.87276 0,0.29489 -0.0344,0.4699 -0.10336,0.52503 -0.0386,0.0386 -0.11162,0.0579 -0.21911,0.0579 -0.30317,0 -0.59669,-0.008 -0.88056,-0.0248 -0.0221,0 -0.0331,0.0207 -0.0331,0.062 0,0.0387 0.011,0.0608 0.0331,0.0661 0.23426,0.0606 0.4079,0.12678 0.5209,0.19844 0.11847,0.0744 0.19564,0.17777 0.23151,0.31006 0.0276,0.0965 0.0538,0.16123 0.0786,0.1943 0.0248,0.0386 0.0661,0.0579 0.12402,0.0579 0.23978,0 0.44648,-0.0648 0.62012,-0.19431 0.26458,-0.20394 0.39687,-0.52365 0.39687,-0.95911 0,-0.4079 -0.0992,-0.76619 -0.29766,-1.07487 -0.22599,-0.35278 -0.64629,-0.73036 -1.2609,-1.13275 0.34451,-0.47956 0.59256,-0.83509 0.74414,-1.0666 0.15985,-0.24805 0.37483,-0.61323 0.64492,-1.09554 0.11299,-0.0275 0.18878,-0.0524 0.22738,-0.0744 0.0413,-0.022 0.062,-0.0592 0.062,-0.11163 h -5.2e-4 c 0,-0.0579 -0.0675,-0.1502 -0.20257,-0.27698 -0.27562,-0.24253 -0.44236,-0.3638 -0.50023,-0.3638 -0.0606,0 -0.20532,0.12678 -0.43408,0.38034 h -1.0666 c -0.24253,-0.15159 -0.52503,-0.28664 -0.84749,-0.40515 z m -11.88558,0.0739 c -0.0386,-0.008 -0.0579,0.011 -0.0579,0.0579 0,0.0112 0.003,0.0195 0.008,0.0248 0.21497,0.226 0.36794,0.52366 0.45888,0.89297 0.0414,0.19844 0.0868,0.33486 0.13643,0.40928 0.0579,0.0827 0.14745,0.12402 0.26872,0.12402 0.12126,0 0.22462,-0.0413 0.31006,-0.12402 0.0965,-0.0937 0.14469,-0.21635 0.14469,-0.36794 0,-0.21221 -0.0868,-0.3955 -0.26045,-0.54984 -0.19844,-0.17639 -0.53468,-0.3321 -1.00872,-0.46715 z m -41.40988,0.11575 c -0.0717,0 -0.22048,0.15297 -0.44648,0.45889 h -1.39733 c -0.16812,0 -0.34589,-0.0221 -0.53331,-0.0661 l 0.0951,0.31005 c 0.18466,-0.0331 0.33899,-0.0496 0.46302,-0.0496 h 0.45062 v 2.04225 h -0.38034 c -0.16813,0 -0.34589,-0.0221 -0.5333,-0.0661 l 0.0909,0.31006 c 0.18741,-0.0331 0.34313,-0.0496 0.46715,-0.0496 h 0.35554 v 2.14147 c -0.14607,0.0496 -0.27561,0.0896 -0.38861,0.11989 -0.28939,0.0827 -0.54019,0.14744 -0.75241,0.19431 0.15986,0.38584 0.27562,0.64767 0.34727,0.78548 0.0827,0.15434 0.15847,0.23151 0.22737,0.23151 0.11025,0 0.16951,-0.12127 0.17777,-0.3638 0.99219,-0.52642 1.7446,-1.06799 2.25723,-1.62471 0.005,-0.006 0.008,-0.0138 0.008,-0.0248 0,-0.0413 -0.0151,-0.062 -0.0455,-0.062 -0.006,0 -0.01,10e-4 -0.0124,0.004 -0.39411,0.19016 -0.74965,0.3445 -1.0666,0.46302 v -1.86449 h 0.98392 c 0.0717,0 0.10748,-0.029 0.10748,-0.0868 0,-0.0468 -0.0565,-0.12264 -0.1695,-0.22737 -0.22598,-0.19844 -0.36654,-0.29766 -0.42167,-0.29766 -0.0799,0 -0.20671,0.13918 -0.38034,0.41755 h -0.11989 v -2.04225 h 1.21129 c 0.0717,0 0.10749,-0.029 0.10749,-0.0868 0,-0.0469 -0.0703,-0.12816 -0.21084,-0.24391 -0.27284,-0.21498 -0.43683,-0.32247 -0.49196,-0.32247 z m 3.31556,0.0703 c -0.0331,-0.005 -0.0496,0.0102 -0.0496,0.046 0,0.0139 0.006,0.0231 0.0165,0.0284 0.2012,0.15709 0.3638,0.40789 0.48782,0.75241 0.0717,0.18741 0.17088,0.28112 0.29766,0.28112 0.10197,0 0.18879,-0.0331 0.26045,-0.0992 0.0799,-0.0772 0.11989,-0.17915 0.11989,-0.30593 0,-0.3638 -0.37758,-0.59807 -1.13275,-0.7028 z m 48.27716,1.22835 c 0,0.15158 -0.0441,0.38585 -0.13229,0.7028 -0.11025,0.39688 -0.24116,0.78411 -0.39274,1.16169 h -1.88516 c -0.20671,0 -0.42719,-0.0221 -0.66146,-0.0661 l 0.0951,0.31006 c 0.226,-0.0331 0.41478,-0.0496 0.56637,-0.0496 h 4.01009 c 0.0744,0 0.11162,-0.029 0.11162,-0.0868 0,-0.0496 -0.0786,-0.14194 -0.23564,-0.27699 -0.30865,-0.26183 -0.48917,-0.39274 -0.54157,-0.39274 -0.0717,0 -0.25494,0.18741 -0.54984,0.56224 h -0.68626 c 0.33072,-0.31419 0.67523,-0.72347 1.03353,-1.22783 0.2067,-0.0248 0.31006,-0.0813 0.31006,-0.1695 0,-0.0965 -0.34727,-0.25218 -1.0418,-0.46716 z m -2.16628,0.0703 c -0.0496,0 -0.0744,0.0179 -0.0744,0.0537 0,0.006 0.001,0.0112 0.004,0.0165 0.2122,0.30317 0.33347,0.67111 0.3638,1.10381 0.0248,0.26458 0.13505,0.39688 0.33073,0.39688 0.12127,0 0.22324,-0.0386 0.30593,-0.11576 0.0965,-0.0882 0.14469,-0.20394 0.14469,-0.34726 0,-0.37758 -0.35278,-0.74552 -1.05833,-1.10381 -0.006,-0.003 -0.0112,-0.004 -0.0165,-0.004 z m -53.77604,0.64027 c 0,0.95636 -0.0304,1.6564 -0.091,2.10013 -0.0221,0.14059 -0.0441,0.23292 -0.0661,0.27699 -0.0331,0.0579 -0.0896,0.0868 -0.1695,0.0868 -0.22048,0 -0.41616,-0.0138 -0.58704,-0.0413 -0.011,-0.82407 -0.0165,-1.44281 -0.0165,-1.85622 v -0.22738 z m 30.37127,0.0496 h 1.68258 v 2.4226 h -1.68258 z m 19.43964,0.18191 c -0.0524,0 -0.2136,0.12126 -0.48369,0.3638 h -2.8112 c -0.17088,0 -0.35416,-0.022 -0.54984,-0.0661 l 0.0909,0.3266 c 0.17364,-0.0441 0.33487,-0.0661 0.4837,-0.0661 h 2.76985 c -0.24253,0.34175 -0.53054,0.66559 -0.86403,0.97152 h -5.1e-4 c -0.2949,-0.0469 -0.52091,-0.0827 -0.678,-0.10749 0.0165,0.17915 0.0248,0.38999 0.0248,0.63252 v 0.17777 h -2.70785 c -0.18465,0 -0.38309,-0.0221 -0.59531,-0.0662 l 0.0951,0.31006 c 0.21222,-0.0331 0.38998,-0.0496 0.5333,-0.0496 h 2.67478 v 1.7446 c 0,0.0854 -0.0482,0.12815 -0.1447,0.12815 -0.26459,0 -0.66697,-0.0207 -1.20716,-0.062 -0.0248,0 -0.0372,0.0221 -0.0372,0.0662 0,0.0305 0.01,0.0484 0.0289,0.0537 0.3197,0.0799 0.54846,0.15985 0.68626,0.23978 0.1626,0.0937 0.25492,0.22049 0.27699,0.38034 0.0165,0.091 0.0345,0.14883 0.0537,0.17363 0.0221,0.0303 0.0744,0.046 0.1571,0.046 0.41892,0 0.70418,-0.10473 0.85576,-0.31419 0.10197,-0.13505 0.15296,-0.31832 0.15296,-0.54984 0,-0.113 -0.002,-0.25356 -0.008,-0.42168 -0.008,-0.25631 -0.0139,-0.45199 -0.0165,-0.58704 v -0.8971 h 3.43958 c 0.0717,0 0.10749,-0.0281 0.10749,-0.0832 0,-0.0469 -0.091,-0.14607 -0.27286,-0.29766 -0.35552,-0.2756 -0.56085,-0.41341 -0.61598,-0.41341 -0.0717,0 -0.26872,0.19981 -0.59118,0.59945 h -2.06705 v -0.26045 c 0.19843,-0.091 0.29765,-0.17364 0.29765,-0.24805 0,-0.0606 -0.0537,-0.10609 -0.16123,-0.13642 0.40239,-0.19293 0.85025,-0.46578 1.34359,-0.81856 0.27836,-0.008 0.41754,-0.0648 0.41754,-0.1695 0,-0.0551 -0.0648,-0.13918 -0.1943,-0.25218 -0.25906,-0.23151 -0.42029,-0.34726 -0.48369,-0.34726 z m -44.9032,0.0165 c -0.0358,0 -0.0537,0.0179 -0.0537,0.0538 0,0.0112 0.003,0.0195 0.008,0.0248 0.22324,0.28388 0.37483,0.6215 0.45475,1.01286 0.0524,0.2453 0.0992,0.40102 0.14056,0.46715 0.0441,0.0772 0.13092,0.11576 0.26045,0.11576 0.10474,0 0.19569,-0.04 0.27285,-0.11989 0.0882,-0.0937 0.1323,-0.21084 0.1323,-0.3514 0,-0.46853 -0.40101,-0.86817 -1.20303,-1.19889 -0.006,-0.003 -0.01,-0.004 -0.0124,-0.004 z m 18.80298,0.0744 c -0.0717,0 -0.24942,0.17776 -0.5333,0.5333 h -1.72806 c -0.18741,0 -0.38999,-0.0216 -0.60771,-0.0656 l 0.0951,0.31006 c 0.2012,-0.0331 0.36656,-0.0496 0.4961,-0.0496 h 2.92282 c 0.0717,0 0.10748,-0.0281 0.10748,-0.0832 0,-0.0524 -0.0758,-0.14332 -0.22737,-0.27285 -0.29769,-0.24805 -0.4727,-0.37207 -0.52504,-0.37207 z m 1.86449,1.39733 c -0.0717,0 -0.26046,0.19155 -0.56637,0.57464 h -5.01469 c -0.21497,0 -0.44373,-0.0221 -0.68626,-0.0662 l 0.0951,0.31006 c 0.23702,-0.0331 0.43408,-0.0496 0.59117,-0.0496 h 1.48415 c -0.113,0.60359 -0.30041,1.23059 -0.56224,1.88102 h -0.31006 c -0.41065,0 -0.77583,-0.0151 -1.09554,-0.0455 0.15162,0.56224 0.24532,0.89572 0.28112,1.00045 0.0413,0.11852 0.0978,0.17777 0.1695,0.17777 0.0855,0 0.15297,-0.10748 0.20257,-0.32246 1.68121,-0.17087 3.13504,-0.4079 4.36149,-0.71107 0.011,0.0276 0.0248,0.0634 0.0413,0.10749 0.0277,0.0717 0.0443,0.11576 0.0496,0.13229 0.0992,0.25907 0.17498,0.42306 0.22738,0.49196 0.0579,0.0772 0.15159,0.11576 0.28112,0.11576 0.12127,0 0.22462,-0.0496 0.31006,-0.14883 0.10197,-0.113 0.15296,-0.25494 0.15296,-0.42582 0,-0.27285 -0.14883,-0.54708 -0.44648,-0.82268 -0.34452,-0.31971 -0.84061,-0.59808 -1.48828,-0.8351 -0.003,-0.003 -0.007,-0.004 -0.0124,-0.004 -0.0331,0 -0.0496,0.0193 -0.0496,0.0579 0,0.0139 0.004,0.0231 0.0124,0.0284 0.36104,0.33624 0.63665,0.70004 0.82682,1.0914 -1.17409,0.0661 -2.23242,0.10336 -3.175,0.11162 0.50712,-0.565 0.95361,-1.192 1.33945,-1.88102 h 3.70003 c 0.0717,0 0.10749,-0.0276 0.10749,-0.0827 0,-0.0551 -0.0841,-0.15158 -0.25218,-0.28939 -0.32523,-0.26458 -0.51677,-0.39687 -0.57464,-0.39687 z m 27.8536,0.10387 c 0.0248,0.58153 0.0372,1.23058 0.0372,1.94716 l -0.0289,1.24024 c 0,0.18741 0.11575,0.28112 0.34726,0.28112 0.30041,0 0.45062,-0.10473 0.45062,-0.31419 v -0.38034 h 1.84381 l -5.1e-4,0.31419 c 0,0.18465 0.113,0.27699 0.339,0.27699 0.30592,0 0.45888,-0.10749 0.45888,-0.32247 l -0.0284,-1.83554 v -0.37207 c 0.16537,-0.12404 0.24805,-0.21912 0.24805,-0.28526 0,-0.0579 -0.0648,-0.13642 -0.19431,-0.23564 -0.25906,-0.20395 -0.42029,-0.30593 -0.48369,-0.30593 -0.0634,0 -0.2067,0.13505 -0.42995,0.40515 h -1.67018 c -0.2756,-0.14056 -0.57189,-0.27837 -0.88883,-0.41341 z m 0.80615,0.60771 h 1.84381 v 1.97197 h -1.84381 z m -24.46362,0.66921 c -0.15986,0.36381 -0.38034,0.70143 -0.66146,1.01286 -0.44649,0.49334 -0.96325,0.93155 -1.5503,1.31465 -0.005,0.003 -0.008,0.008 -0.008,0.0165 0,0.0165 0.007,0.0317 0.0207,0.0455 0.0193,0.0165 0.0386,0.0233 0.0579,0.0207 1.15204,-0.34727 2.08222,-0.8916 2.79053,-1.63298 0.27285,-0.0138 0.40928,-0.0703 0.40928,-0.16949 h -5.2e-4 c 0,-0.0579 -0.0579,-0.11991 -0.17363,-0.18604 -0.0992,-0.0579 -0.39413,-0.19843 -0.8847,-0.42168 z m 2.204,0.11576 c -0.0413,-0.008 -0.062,0.011 -0.062,0.0579 0,0.0112 0.004,0.0195 0.0124,0.0248 0.35002,0.24529 0.62424,0.47267 0.82268,0.68213 0.23427,0.24804 0.4837,0.60633 0.74828,1.07487 0.14607,0.25356 0.30868,0.38034 0.48783,0.38034 0.12953,0 0.23702,-0.0427 0.32246,-0.12816 0.0965,-0.0965 0.14469,-0.22049 0.14469,-0.37207 0,-0.33349 -0.19843,-0.65044 -0.59531,-0.95085 -0.46302,-0.35002 -1.09003,-0.60634 -1.88102,-0.76894 z"
         style="font-weight:600;font-size:8.46667px;line-height:9.87778px;font-family:'Yu Mincho';-inkscape-font-specification:'Yu Mincho, Semi-Bold';text-align:center;letter-spacing:0.0211667px;text-anchor:middle;display:inline;fill:#01a402;stroke-width:1;stroke-linecap:square;paint-order:stroke fill markers" /><path
         id="path3"
         style="display:inline"
         d="m 151.65999,72.428137 c -0.36748,2.664195 -1.32757,5.526412 -2.10839,8.305436 -3.13182,9.188703 -5.85762,14.863037 -10.91303,22.211047 -0.0229,0.0459 -0.0341,0.0921 -0.0341,0.13798 0,0.32154 0.19504,0.48214 0.58549,0.48214 0.0689,0 0.13219,-0.0175 0.17209,-0.0687 6.65678,-5.50845 10.58964,-10.705832 13.31908,-15.336017 h 11.1692 l 0.32481,-1.884121 -10.45118,-10e-7 c 1.14836,-2.36562 3.83306,-7.139635 4.84363,-10.033496 0.53014,-0.03483 1.18536,-0.153939 1.50999,-0.338481 0.72447,-0.411847 0.71458,-0.998834 0.61908,-1.024744 z m -73.580001,6.361886 c -0.31897,0.0102 -0.381309,0.07041 -0.417029,0.328145 -0.09952,1.537323 0.148778,4.094007 -0.320911,5.611027 -0.184646,0.59638 -0.318051,0.941737 -0.485242,1.211812 -0.666048,1.102427 -2.216811,4.010268 -4.191992,4.974891 -1.446933,0.757917 -2.17041,1.883666 -2.17041,3.376538 0,1.033525 0.298402,1.894806 0.895553,2.583821 0.689015,0.780889 1.608059,1.170988 2.756421,1.170988 1.607704,0 2.905194,-0.631259 3.892785,-1.894458 1.125395,-1.446933 2.178162,-5.688838 2.178162,-8.39897 0,-0.528248 -0.02332,-1.068844 -0.06925,-1.620056 H 122.0401 c -0.57418,2.457491 -1.93179,6.151511 -2.85048,8.379333 -0.023,0.04593 -0.0346,0.08038 -0.0346,0.103353 0,0.321543 0.17226,0.482141 0.51677,0.482141 0.0459,0 0.0915,-0.01165 0.13745,-0.03462 2.91685,-1.538807 5.93204,-3.886993 7.42487,-5.242057 0.24674,-0.264361 1.62443,-1.434223 2.33475,-2.101681 0.0257,-0.02415 0.63356,-0.07901 1.28829,-0.153996 0.73501,-0.115641 1.3899,-0.298362 1.13016,-0.558105 -0.57162,-0.571625 -4.62127,-5.18197 -6.28695,-6.847644 -0.0867,-0.08672 -3.93429,4.170114 -4.14652,4.354773 H 79.941374 c -0.0022,-0.259602 -0.106648,-0.762222 -0.518832,-2.443779 -0.427345,-1.743426 -0.79646,-2.752552 -0.924491,-2.953825 -0.04594,-0.160763 -0.257377,-0.332728 -0.418062,-0.327628 z M 189.3316,81.36816 c -0.12586,0 -3.67161,4.707433 -4.07676,4.907711 h -5.79251 l -0.3248,1.884125 16.1105,-3e-6 c 0.45019,0 1.0017,-0.292775 1.21491,-0.642338 0.0696,-0.1141 0.0642,-0.251038 0.047,-0.362768 -0.0568,-0.369686 -6.9991,-5.786727 -7.17837,-5.786727 z m -2.11822,18.634 c -0.1879,0 -1.70801,1.79302 -4.5129,5.04052 h -6.47337 l -0.27919,1.61954 h 17.43511 c 0.62012,0 0.93017,-0.23001 0.93017,-0.68936 0,-0.62535 -6.91017,-5.9707 -7.09982,-5.9707 z m -26.27347,5.04052 -6.29199,5.2e-4 h -8.03878 l 0.45785,1.61902 h 7.95972 5.63401 z m 32.14701,16.41967 c -0.0702,0 -4.37492,5.30562 -4.37492,5.30562 h -14.56501 -6.85591 -20.25716 -8.18193 l 0.48214,1.61903 h 7.76904 52.05987 c 0.62012,0 1.51951,-0.63088 1.16582,-0.92398 0,0 -7.10747,-6.00067 -7.24194,-6.00067 z m -84.492,20.88865 v 7.53753 l -16.296678,5.1e-4 v 1.61851 h 16.296678 l -5.1e-4,5.92728 h -7.367 c -2.847943,-1.401 -4.070436,-1.61644 -5.632211,-2.23655 v 9.25887 15.33394 c 0.584651,0 2.548118,-0.0907 3.424597,-0.49557 0.934769,-0.43177 1.863454,-0.53639 1.863454,-1.80248 v -1.11828 h 7.71167 v 7.13394 H 91.538082 v 1.61902 h 17.056838 v 7.23108 c 0,0.0218 1.31387,0.0854 3.16002,-0.44183 1.21761,-0.34772 2.09186,-0.95134 2.09186,-1.16427 v -5.62447 l 17.6661,-5.1e-4 c 0.62011,-1e-5 0.82622,-0.36486 0.79582,-0.82321 -0.0292,-0.44069 -5.3667,-4.82554 -5.65133,-4.82554 -0.31735,0 -3.53519,4.02973 -3.53519,4.02973 h -9.2754 c 0,-4.01928 0.0459,-6.05395 0,-7.13342 l 8.01295,-5.2e-4 v 2.39056 c 0,0 1.26091,0.25372 2.64169,-0.19276 2.2946,-0.74196 2.88975,-1.10398 2.88975,-2.89543 v -13.69994 -1.97714 c 0.43551,-0.25303 2.14302,-0.68661 2.14302,-1.16892 0,-0.16489 -5.13313,-4.34444 -5.41362,-4.34444 -0.35328,0 -2.24566,2.3686 -2.77761,2.94814 h -7.49618 v -5.92677 l 16.4946,-5.1e-4 c 0.59715,0 0.89607,-0.2295 0.89607,-0.68885 0,-0.41341 -0.63178,-1.12523 -1.89498,-2.13579 -2.48046,-1.88331 -3.0968,-2.73161 -3.57911,-2.73161 -0.57418,0 -0.95159,1.25006 -3.20239,3.93723 l -8.71419,5.1e-4 v -5.04827 c 1.31373,-0.41341 2.35909,-0.95276 2.32389,-1.61437 -0.0103,-0.19262 -6.78772,-0.8202 -7.57577,-0.8754 z m 61.81948,0.53278 -0.67231,0.40566 -27.35285,16.00575 1.59474,1.60972 26.44489,-15.47968 26.87278,15.30191 1.71618,-1.56063 -9.42165,-5.35884 v -3.98942 h 0.89969 v -1.17203 h -6.08594 v 1.17203 h 1.048 v 1.63555 l -14.12317,-8.0331 z m 10.00043,15.71584 c -0.26642,0 -3.93258,5.12734 -3.93258,5.12734 h -11.36261 -9.29556 l 0.35812,1.61902 h 8.79998 l 21.18733,5.2e-4 c 0.32836,0 0.72864,-0.11429 0.90176,-0.38654 0.1417,-0.22285 0.21817,-0.54372 0.0941,-0.709 -0.12609,-0.16776 -6.6414,-5.65134 -6.75049,-5.65134 z m -79.53158,0.45424 h 7.71116 l 5.1e-4,6.77995 -7.71167,5.1e-4 z m 20.9765,0 v 6.78046 l -8.01295,5.2e-4 v -6.78047 z m -35.551323,6.91379 c -0.505281,0 -1.082679,1.47651 -2.724382,3.68504 l -6.68693,-5.1e-4 v 1.61954 h 7.501868 v 19.22466 c -1.81092,1.04812 -5.51241,2.76239 -7.661031,3.75533 2.480468,5.74182 3.035037,6.35 3.17655,6.35 0.309002,0 0.61866,-0.62331 0.54777,-0.8909 -0.06821,-0.25749 -0.206035,-0.39703 -0.01499,-0.58808 3.376193,-3.53697 5.180046,-5.59778 8.182963,-9.21701 1.356909,1.66008 3.051151,4.93699 6.289539,6.86625 2.11299,1.2632 4.763589,1.96675 8.116816,2.54093 3.05006,0.0414 8.09369,0.10335 14.38672,0.10335 8.36011,0 7.19738,-9e-4 10.53683,0.003 0.87047,-0.0482 1.08665,-0.008 1.17305,-0.26613 0.35944,-2.24541 0.058,-2.56957 3.51968,-4.63176 0.13781,-0.0689 0.20671,-0.21836 0.20671,-0.44803 0,-0.27561 -0.0922,-0.39059 -0.27595,-0.34469 -10.70001,0.26826 -12.36842,0.43202 -19.94762,0.43202 -7.14283,0 -11.40786,0.0888 -16.565402,-0.95757 -0.455894,-0.1543 -3.55598,-1.31616 -6.435266,-4.2509 v -16.66203 c 1.450613,-0.50345 2.332674,-0.98564 2.332674,-1.33015 0,-0.48231 -0.77107,-1.19275 -1.850533,-2.06551 -2.090024,-1.65365 -3.326758,-2.92695 -3.80907,-2.92695 z m 14.574823,1.48621 h 7.71167 v 7.3024 l -7.71167,-5.2e-4 z m 20.9765,0 v 7.30188 l -8.01295,5.2e-4 v -7.30188 z" /></g><path
       style="fill:#000000;stroke-width:0.372387"
       d="m 169.14638,201.63236 c -11.30322,-1.42882 -17.83045,-13.30429 -12.92789,-23.5207 5.88434,-12.26238 23.54012,-12.36779 29.55554,-0.17645 5.76224,11.67825 -3.80814,25.31764 -16.62765,23.69715 z m 3.35785,-1.18461 c 4.35146,-0.45844 8.15722,-2.61594 10.79395,-6.11914 0.67455,-0.89622 0.67278,-0.71435 0.0154,-1.58317 -1.27108,-1.67997 -1.5198,-2.80473 -1.21083,-5.47563 0.18904,-1.63418 -0.076,-1.9849 -1.0287,-1.36089 -2.7028,1.77045 -5.79305,-1.2489 -5.09675,-4.97981 0.52637,-2.82039 4.01071,-4.49105 7.37697,-3.53707 0.93661,0.26542 0.94011,0.25497 0.2557,-0.76311 -2.6371,-3.92279 -7.22893,-6.40524 -12.20134,-6.59634 l -1.56307,-0.06 0.0851,0.33583 c 0.42197,1.66417 -0.23768,2.79341 -1.93183,3.30711 -1.47492,0.44722 -1.68817,0.67154 -1.03846,1.09237 0.85583,0.55434 0.96217,1.61493 0.25779,2.571 -1.72334,2.33914 -0.86645,4.34125 1.86165,4.34974 3.27577,0.0101 4.28309,1.15143 4.11128,4.65792 -0.078,1.5906 -0.35991,2.38928 -1.26634,3.58683 -0.72723,0.96082 -0.72623,0.95442 -0.42484,2.70309 0.44733,2.59538 0.0869,3.89663 -1.17348,4.236 -1.06198,0.28596 -1.78651,-0.15446 -2.38876,-1.45206 -0.71974,-1.55073 -2.84655,-4.30882 -5.0372,-6.53237 -2.04202,-2.07268 -2.36361,-3.77227 -1.24331,-6.57072 0.37121,-0.92728 0.37711,-0.92285 -1.23056,-0.92285 -0.7526,0 -1.95518,-0.0491 -2.6724,-0.10916 -1.53534,-0.12851 -1.41354,-0.20734 -1.6911,1.09443 -2.08205,9.76466 6.457,19.1799 16.44105,18.12806 z m -2.37066,-4.87599 c 0.45773,-0.32062 0.47658,-1.08591 0.0813,-3.30082 -0.26559,-1.48823 -0.15139,-2.05588 0.59524,-2.95883 2.25405,-2.72598 1.57439,-6.40127 -1.18377,-6.40127 -4.0429,0 -5.79461,-2.88432 -3.63555,-5.98621 0.64157,-0.92173 0.64053,-0.88297 0.0377,-1.39135 -1.28669,-1.08495 -0.73982,-2.3457 1.29117,-2.97669 1.40483,-0.43644 1.79375,-0.93124 1.44837,-1.84273 -0.24696,-0.65176 -1.6004,-0.41372 -4.22032,0.74222 -2.51464,1.10951 -5.3317,3.72629 -6.76288,6.28208 -0.33129,0.59163 -1.02078,2.04773 -1.02078,2.15574 0,0.0759 1.51534,0.18307 3.44845,0.24389 2.33419,0.0734 2.50018,0.13047 2.82043,0.96903 0.26265,0.46008 0.0737,0.7367 -0.0988,1.20571 -1.1225,3.05283 -0.9943,3.79513 1.01256,5.86283 2.31104,2.38112 4.39368,5.07117 4.99281,6.44898 0.44049,1.01298 0.74998,1.25852 1.19416,0.94742 z m 14.80467,-4.01072 c 1.64638,-3.68206 1.79271,-7.95936 0.39823,-11.6409 -0.33572,-0.88635 -2.0462,-1.56241 -3.99912,-1.58063 -0.80748,-0.0254 -1.31325,0.0991 -2.02035,0.45012 -0.51005,0.25319 -1.09947,0.63006 -1.30982,0.83749 -2.22782,2.19691 -0.0169,6.88293 2.46031,5.21466 1.74545,-1.17546 3.03083,-0.16399 2.84033,2.23505 -0.2137,2.69115 -0.12634,3.27598 0.66652,4.4614 0.59842,0.89469 0.5743,0.89413 0.9639,0.0227 z"
       id="path9" /><path
       style="fill:#000000;stroke-width:0.18146"
       d="m 87.857541,160.13018 c 0.04224,-0.0901 0.0099,-0.63352 -0.09594,-1.60948 -0.08783,-0.81039 -0.246398,-2.2709 -0.352353,-3.24561 -0.105962,-0.9747 -0.225975,-2.10219 -0.266691,-2.50557 l -0.07402,-0.7334 0.504547,-0.26227 c 1.670481,-0.86831 2.438536,-2.55232 2.24373,-4.91953 -0.294575,-3.57944 -1.703256,-4.92335 -4.778396,-4.55871 -3.658463,0.43383 -7.626314,-0.18926 -11.355557,-1.78313 -0.38453,-0.16436 -0.392045,-0.17225 -0.539069,-0.56636 -0.588107,-1.57609 -2.285,-1.29746 -2.508534,0.41191 -0.05537,0.42348 -0.04687,0.5354 0.243588,3.20425 l 0.201605,1.85242 -0.368451,0.20846 c -2.88789,1.63391 -2.312304,7.26441 0.794371,7.77073 0.22342,0.0364 0.414743,0.0684 0.425168,0.071 0.01911,0.005 0.182808,1.45973 0.464319,4.12114 0.127362,1.20408 0.171555,1.45803 0.313304,1.80047 0.629515,1.5208 2.235767,1.1535 2.474196,-0.56575 0.06203,-0.44721 0.07524,-0.46547 0.775393,-1.07115 2.183123,-1.88862 4.39238,-3.2883 6.991925,-4.42976 0.970498,-0.42613 0.921636,-0.43199 0.979389,0.11727 0.06125,0.58247 0.06406,0.57727 -0.358851,0.66243 -0.614573,0.12374 -0.612655,0.11442 -0.411305,1.99604 0.179436,1.67689 0.197474,1.70983 0.871125,1.59158 0.276107,-0.0484 0.359548,-0.0355 0.367859,0.0575 0.260077,2.90811 0.404946,3.71719 0.678123,3.78737 0.226597,0.0582 2.674726,-1.17614 2.780568,-1.40196 z m -2.364459,0.19358 c -0.01004,-0.003 -0.100348,-0.80338 -0.201126,-1.77724 -0.100777,-0.97384 -0.212117,-2.00125 -0.247426,-2.28311 -0.03529,-0.28188 -0.09699,-0.82899 -0.137081,-1.21583 -0.04009,-0.38683 -0.111185,-1.06662 -0.157981,-1.51062 -0.0468,-0.44401 -0.0789,-0.82676 -0.07131,-0.85057 0.01542,-0.0484 1.499176,-0.46593 1.555528,-0.43779 0.04555,0.0228 0.105453,0.50124 0.343004,2.74122 0.105671,0.99637 0.259274,2.43756 0.341337,3.20265 l 0.149203,1.39105 -0.778129,0.37342 c -0.427969,0.20539 -0.786173,0.37046 -0.796019,0.36682 z m -1.447742,-3.71128 c -0.178414,-0.53128 -0.163652,-1.77315 0.01826,-1.5365 0.121074,0.15756 0.209722,1.49445 0.102959,1.55319 -0.05364,0.0295 -0.108222,0.022 -0.121184,-0.0167 z m -10.298929,2.67933 c -0.388857,-0.1524 -0.382149,-0.11482 -0.912355,-5.11283 -0.08413,-0.79301 -0.362093,-3.36929 -0.617706,-5.72506 -0.930312,-8.57403 -0.887925,-8.0077 -0.625108,-8.35174 0.198548,-0.2599 0.423642,-0.25381 0.673559,0.0178 l 0.184024,0.20029 0.135338,1.18912 c 0.124784,1.09642 0.333287,3.01628 0.815174,7.50608 0.102515,0.95506 0.294617,2.73341 0.426903,3.95187 0.670349,6.17448 0.633343,5.70207 0.471683,6.02065 -0.157017,0.3094 -0.314719,0.39616 -0.551485,0.30336 z m 13.221969,-8.33263 c -0.02075,-0.0209 -0.123938,-0.85329 -0.22928,-1.84985 -0.105349,-0.99655 -0.287191,-2.6925 -0.40411,-3.76878 -0.116916,-1.07626 -0.215051,-2.00181 -0.218078,-2.0568 -0.01745,-0.3172 1.375619,0.18454 1.85093,0.66667 1.162613,1.1793 1.457852,4.48946 0.519832,5.82844 -0.365492,0.52174 -1.385824,1.31441 -1.519294,1.18032 z m -1.673375,0.46615 c -3.311312,0.96626 -6.514452,2.74354 -9.545823,5.29656 -0.314246,0.26465 -0.593864,0.48258 -0.62137,0.48427 -0.02747,0.002 -0.115496,-0.62995 -0.195544,-1.4037 -0.133265,-1.28817 -0.369889,-3.48874 -1.012981,-9.42045 -0.310582,-2.86474 -0.513492,-4.83379 -0.501878,-4.87027 0.0052,-0.0161 0.358543,0.10587 0.785323,0.27118 3.348262,1.29713 6.630531,1.83285 9.893121,1.61468 0.585205,-0.0392 1.089006,-0.0848 1.119566,-0.10172 0.08949,-0.0492 0.161274,0.49104 0.504033,3.79205 0.08245,0.79396 0.215457,2.03256 0.295585,2.75246 0.08013,0.71989 0.125326,1.32011 0.100418,1.33381 -0.02489,0.0136 -0.394105,0.12671 -0.820458,0.25112 z m -13.827353,0.93122 c -2.120213,-0.58964 -2.536373,-4.40885 -0.618475,-5.6758 l 0.348151,-0.22998 0.0815,0.76756 c 0.04483,0.42215 0.164849,1.53166 0.266729,2.46555 0.255376,2.34105 0.286603,2.69872 0.237957,2.72548 -0.02326,0.0128 -0.165409,-0.0112 -0.315877,-0.0528 z"
       id="path20" /><path
       id="rect9"
       style="display:inline;opacity:1;fill:#000000;fill-opacity:1;stroke-width:0.21252;stroke-linecap:square;paint-order:stroke fill markers"
       d="m 178.74371,33.653033 c -0.19625,0 -0.35443,0.158141 -0.35443,0.354391 l -1.4e-4,58.339612 c 0,0.19625 0.15813,0.354065 0.35438,0.354065 l 0.48274,8.8e-5 c 0.19625,0 0.35392,-0.158052 0.35392,-0.354302 l -1.5e-4,-4.639746 7.67856,-1.349855 2.6e-4,4.430497 c 0,0.19625 0.15813,0.354065 0.35438,0.354065 l 0.48223,1.78e-4 c 0.19625,0 0.35443,-0.158142 0.35443,-0.354391 l 1.3e-4,-58.339612 c 0,-0.19625 -0.15813,-0.354065 -0.35438,-0.354065 l -0.48222,-1.77e-4 c -0.19625,0 -0.35444,0.158141 -0.35444,0.35439 l -2.1e-4,4.254386 -7.67855,1.349854 9e-5,-4.045136 c 0,-0.196249 -0.15812,-0.354064 -0.35437,-0.354064 z m 0.83651,4.919569 7.67856,-1.349854 -1.4e-4,4.939222 -7.67856,1.349855 z m -1.3e-4,5.459413 7.67855,-1.349854 -1.3e-4,4.939222 -7.67856,1.349855 z m -1.4e-4,5.459413 7.67856,-1.349854 -1.4e-4,4.939222 -7.67856,1.349855 z m -1.3e-4,5.459413 7.67856,-1.349854 -1.4e-4,4.939222 -7.67856,1.349855 z m -1.4e-4,5.459413 7.67856,-1.349854 -1.4e-4,4.939222 -7.67856,1.349855 z m -1.3e-4,5.459413 7.67856,-1.349854 3.7e-4,4.939133 -7.67856,1.349854 z m 3.7e-4,5.459324 7.67856,-1.349854 -1.4e-4,4.939222 -7.67855,1.349854 z m -1.3e-4,5.459413 7.67856,-1.349854 3.7e-4,4.939133 -7.67856,1.349854 z m 3.8e-4,5.459324 7.67855,-1.349855 -1.4e-4,4.939223 -7.67855,1.349854 z"
       transform="matrix(0.98487964,0.17323998,-0.1698827,0.98546428,0,0)" /><path
       style="display:inline;fill:#000000;stroke-width:0.250537"
       d="m 100.1247,131.07485 c -0.822988,-0.35303 -2.037702,-0.85222 -2.499745,-1.02729 -0.248493,-0.0942 -0.652195,-0.35476 -0.546074,-0.64427 0,0 0.04933,-0.33394 0.321895,-0.33394 1.319474,0 4.130044,-0.0351 4.130044,-0.0351 3.80512,-0.0323 4.14632,-0.0166 4.33691,0.19931 0.28689,0.32504 0.0849,0.79953 -0.38909,0.91404 -0.20413,0.0493 -0.95452,0.35007 -1.66751,0.66835 -1.5777,0.70427 -2.49756,0.76886 -3.68643,0.25888 z m -3.162413,-2.76288 c -0.252657,-0.25266 -0.193726,-0.87585 0.09756,-1.03175 0.335301,-0.17945 8.631853,-0.18671 9.101983,-0.008 0.39674,0.15083 0.46435,0.65803 0.13203,0.99035 -0.18156,0.18157 -0.79339,0.2088 -4.69046,0.2088 -3.308577,0 -4.523404,-0.0417 -4.641117,-0.15945 z m 0.09837,-1.72973 c -0.174291,-0.0645 -0.257823,-0.22069 -0.257823,-0.48216 0,-0.65901 0.272503,-0.69405 5.088286,-0.65429 4.5898,0.0379 4.60748,0.0403 4.60748,0.63389 0,0.58773 -0.008,0.58875 -4.71329,0.59346 -2.456758,0.003 -4.58285,-0.0384 -4.724653,-0.0909 z m -0.490353,-1.70257 c -0.333912,-0.13422 -0.417693,-0.75411 -0.139518,-1.03228 0.118381,-0.11838 1.45065,-0.15945 5.172614,-0.15945 4.38025,0 5.03952,0.0264 5.22196,0.2088 0.27743,0.27743 0.26403,0.63015 -0.0342,0.90004 -0.21712,0.19649 -0.75826,0.21901 -5.08244,0.21148 -2.661706,-0.005 -4.973995,-0.0625 -5.138426,-0.12859 z m 1.494836,-1.44271 c -1.085039,-0.19898 -2.037581,-0.9139 -2.540822,-1.907 -0.268647,-0.53015 -0.336645,-0.86361 -0.341937,-1.67684 -0.0083,-1.27771 -0.409892,-3.21893 -0.797039,-3.85288 -0.162593,-0.26624 -0.708237,-1.11191 -1.212542,-1.87925 -1.190013,-1.81073 -2.267659,-3.96716 -2.855289,-5.7136 -0.459204,-1.36476 -0.469475,-1.44154 -0.471045,-3.52117 -0.0014,-1.8391 0.03932,-2.25945 0.301651,-3.11494 1.051608,-3.429413 3.11033,-5.933681 6.123219,-7.448404 0.997619,-0.501551 1.42448,-0.65471 2.790362,-1.001191 0.960542,-0.243658 4.199972,-0.247154 5.182102,-0.0056 2.935,0.721862 5.24356,2.214365 6.90057,4.461402 1.72597,2.340553 2.49239,4.777043 2.36142,7.507093 -0.14495,3.02155 -1.00994,5.18393 -3.74735,9.36795 -0.75511,1.15417 -1.06582,1.72817 -1.3306,2.45818 -0.053,0.14616 -0.14382,1.05004 -0.2018,2.00863 -0.0811,1.34126 -0.20145,1.84989 -0.37655,2.27434 -0.50975,1.23565 -1.18559,2.05425 -2.54349,2.08732 -1.09036,0.0266 -3.25463,0.0267 -3.25463,0.0267 -1.9001,0.0147 -3.693906,-0.0171 -3.98623,-0.0707 z m 3.01744,-4.11094 c -0.0277,-1.66824 0.0124,-3.87785 0.0891,-4.91025 0.12769,-1.7185 0.17854,-1.95942 0.60198,-2.85172 0.35017,-0.73792 0.67228,-1.16701 1.32621,-1.76669 2.23289,-2.04761 2.17723,-1.98695 3.01996,-3.29081 0.28362,-0.43882 0.47717,-0.91045 0.51567,-1.03516 0.12196,-0.39501 0.29262,-0.94616 0.26575,-1.51871 -0.0516,-1.10038 -0.007,-1.1237 -0.46949,-1.58665 -0.40676,-0.40676 -0.55323,-0.46892 -1.09621,-0.46526 -1.02503,0.007 -1.03659,0.0339 -1.0306,2.40977 0.005,1.89964 -0.0187,2.11402 -0.26871,2.44996 -0.6135,0.82445 -1.42152,1.1473 -1.89752,0.75816 -0.26794,-0.21905 -0.30187,-0.3983 -0.37709,-1.99211 -0.0805,-1.70657 -0.0736,-1.76983 0.26962,-2.47142 0.19375,-0.39601 0.35227,-0.7589 0.35227,-0.80642 0,-0.16615 -1.13164,-0.0763 -1.37666,0.1093 -0.1927,0.14596 -0.23116,0.29891 -0.17438,0.69336 0.22644,1.57297 0.24016,1.95539 0.0992,2.76504 -0.18268,1.04902 -0.64678,1.85759 -1.136811,1.98058 -1.004797,0.25218 -1.575625,-0.93716 -1.505227,-3.1362 0.04036,-1.26081 0.05088,-1.29837 0.490665,-1.75183 0.506361,-0.52212 0.4866,-0.8081 -0.07047,-1.0199 -0.502667,-0.19111 -1.008379,-0.0464 -1.450415,0.41495 l -0.37801,0.39456 0.226461,0.84989 c 0.124554,0.46743 0.226462,1.22308 0.226462,1.67921 0,0.68619 -0.05901,0.9067 -0.34191,1.2776 -0.880803,1.15479 -1.413957,1.26334 -1.837269,0.37406 -0.385304,-0.80943 -0.374916,-2.58833 0.01997,-3.42007 0.386501,-0.81407 0.378008,-0.9228 -0.09966,-1.27596 -0.488594,-0.36123 -0.507625,-0.64141 -0.0575,-0.8465 0.281591,-0.1283 0.420995,-0.11242 0.798761,0.091 0.449992,0.24234 0.462601,0.24193 0.755087,-0.0244 0.498001,-0.45351 0.91653,-0.60794 1.686875,-0.62243 0.619447,-0.0116 0.831645,0.0517 1.334502,0.39815 l 0.597929,0.41199 0.39863,-0.2452 c 0.4579,-0.28166 2.09587,-0.34543 2.62935,-0.10237 0.25663,0.11694 0.40243,0.0919 0.77028,-0.13237 0.70518,-0.42991 2.08073,-0.39175 2.78963,0.0774 0.29502,0.19524 0.68239,0.60409 0.86083,0.90858 0.27523,0.46964 0.32443,0.72513 0.32443,1.68475 0,1.15695 -0.0908,1.58387 -0.55973,2.63242 -0.37766,0.84442 -1.5729,2.39493 -2.37151,3.0764 -1.61833,1.38097 -1.82999,1.60912 -2.22841,2.40203 -0.37686,0.75 -0.4332,1.02312 -0.56489,2.73822 -0.0805,1.04781 -0.11802,3.20038 -0.0835,4.78347 l 0.0628,2.87836 h 1.58712 c 1.50845,0 1.61443,-0.0181 2.13808,-0.36483 0.80969,-0.53616 0.97578,-0.96669 1.10853,-2.87342 0.17009,-2.44298 0.33224,-2.90944 1.72243,-4.95513 1.53679,-2.26139 2.37896,-3.83558 3.08469,-5.84476 0.42228,-1.20222 0.42119,-1.30775 0.42198,-3.3684 7.1e-4,-1.87271 -0.0361,-2.23679 -0.30874,-3.05611 -1.28162,-3.851316 -4.11469,-6.485221 -7.93328,-7.375601 -5.05237,-1.178059 -10.315202,1.512069 -12.327391,6.301221 -0.216662,0.51567 -0.475428,1.3271 -0.575036,1.80318 -0.242719,1.16007 -0.230902,3.49128 0.02325,4.58717 0.433778,1.87042 1.647655,4.40476 3.248058,6.78132 0.497833,0.73927 1.035383,1.63001 1.194556,1.97942 0.395816,0.86887 0.66293,2.21165 0.665695,3.34644 0.0032,1.31181 0.103097,1.69664 0.582872,2.24532 0.575441,0.65807 1.214848,0.84785 2.879995,0.85478 l 1.401011,0.006 z m -1.232975,-14.46518 c 0.0091,-1.06496 -0.147758,-1.48943 -0.402105,-1.08786 -0.170463,0.26913 -0.145193,2.08029 0.03369,2.41453 0.150256,0.28076 0.156068,0.28132 0.256409,0.0245 0.05647,-0.14453 0.106871,-0.75255 0.112008,-1.35115 z m 3.381025,1.00533 c 0.0457,-0.22838 0.0831,-0.85621 0.0831,-1.39519 0,-0.74288 -0.0442,-0.97994 -0.1827,-0.97994 -0.21752,0 -0.34948,0.57482 -0.34698,1.51144 0.003,1.18059 0.27725,1.71063 0.44663,0.86369 z m -6.959294,-0.84708 c 0,-0.71218 -0.165334,-1.05127 -0.318262,-0.65274 -0.191516,0.49908 -0.0407,1.58972 0.199311,1.44138 0.06542,-0.0404 0.118951,-0.39532 0.118951,-0.78864 z"
       id="path25" /><path
       id="path22"
       style="display:inline;opacity:1;fill:none;fill-opacity:1;stroke:#000000;stroke-width:1;stroke-linecap:square;stroke-dasharray:none;stroke-opacity:1;paint-order:stroke fill markers"
       d="m 98.071016,66.715824 3.562054,12.328447 3.42977,-12.328447 z m 16.552994,1.528072 -6.04562,11.27063 10.90424,-6.772713 z m -26.279532,0.05943 -5.255493,3.837492 10.077421,8.160226 z" /></g></svg>
